<svg width="100%" height="100%" viewBox="0 0 1380 552" version="1.1"
    xmlns="http://www.w3.org/2000/svg" xmlns:xlink="http://www.w3.org/1999/xlink"
    style="fill-rule:evenodd;clip-rule:evenodd;stroke-linejoin:round;stroke-miterlimit:2;">
    <g>
        <g>
            <g>
                <g>
                    <path
                        d="M1090.31,454.165c0,28.457 -9.485,51.506 -28.456,69.149c-18.971,17.643 -45.91,26.465 -80.816,26.465c-12.901,-0 -29.311,-2.277 -49.23,-6.83c-19.92,-4.553 -34.812,-10.054 -44.677,-16.504l10.814,-19.92c15.177,6.83 28.646,11.857 40.408,15.082c11.762,3.225 25.611,4.838 41.546,4.838c24.283,-0 44.108,-5.692 59.474,-17.074c15.367,-11.383 23.05,-27.888 23.05,-49.514l0,-63.174c-22.006,19.73 -47.427,29.595 -76.263,29.595c-39.46,-0 -69.149,-13.28 -89.069,-39.839c-19.919,-26.559 -29.879,-62.225 -29.879,-106.996c-0,-42.875 10.624,-77.592 31.871,-104.151c21.248,-26.559 51.601,-39.839 91.061,-39.839c13.279,0 26.938,3.035 40.977,9.106c14.038,6.071 26.37,13.28 36.993,21.627l6.83,-23.334l15.366,-0l0,311.313Zm-348.876,-295.378c-16.694,0 -30.543,1.518 -41.546,4.553c-11.003,3.036 -23.524,7.968 -37.563,14.798l-10.813,-18.782c9.865,-6.829 23.903,-12.52 42.116,-17.073c18.212,-4.553 33.578,-6.83 46.099,-6.83c30.733,0 54.352,8.063 70.857,24.188c16.504,16.125 24.757,38.037 24.757,65.734l-0,193.504l-21.627,0l-4.553,-29.594c-9.865,11.003 -22.196,19.919 -36.994,26.749c-14.797,6.829 -30.543,10.244 -47.237,10.244c-29.974,-0 -52.929,-7.873 -68.865,-23.619c-15.936,-15.746 -23.903,-36.14 -23.903,-61.181c-0,-25.801 9.106,-46.005 27.318,-60.613c18.212,-14.607 41.926,-21.911 71.141,-21.911l76.832,0l0,-34.148c0,-20.109 -5.596,-36.139 -16.789,-48.091c-11.193,-11.952 -27.603,-17.928 -49.23,-17.928Zm511.078,267.491c-39.839,-0.379 -70.572,-13.944 -92.199,-40.693c-21.627,-26.749 -32.44,-62.13 -32.44,-106.142c-0,-27.319 5.027,-51.886 15.082,-73.703c10.054,-21.816 24.757,-38.985 44.107,-51.506c19.351,-12.521 42.306,-18.781 68.865,-18.781c39.839,0.379 70.477,13.944 91.914,40.693c21.437,26.749 32.156,62.13 32.156,106.142c0,27.319 -5.027,51.886 -15.082,73.703c-10.055,21.816 -24.757,38.985 -44.107,51.506c-19.351,12.521 -42.116,18.781 -68.296,18.781Zm-667.019,-7.399l-15.366,0l-10.245,-24.472c-23.144,21.247 -49.324,31.871 -78.54,31.871c-39.459,-0 -69.149,-13.28 -89.068,-39.839c-19.92,-26.559 -29.879,-62.225 -29.879,-106.996c-0,-42.875 10.623,-77.592 31.871,-104.151c21.247,-26.559 51.601,-39.839 91.06,-39.839c12.142,0 24.568,2.466 37.278,7.399c12.711,4.932 24.378,11.193 35.002,18.781l-0,-138.867l27.887,-5.123l0,401.236Zm-513.354,-276.027l-0,276.027l-27.888,0l0,-276.027l27.888,-0Zm178.706,15.935c-29.974,0 -63.173,18.592 -99.597,55.775l-0,204.317l-27.888,0l0,-276.027l21.627,-0l5.692,43.254c12.141,-14.039 27.318,-25.991 45.53,-35.856c18.212,-9.864 35.665,-14.797 52.36,-14.797c28.077,0 48.755,8.252 62.035,24.757c13.279,16.505 19.919,38.796 19.919,66.873l0,191.796l-27.887,0l-0,-191.796c-0,-21.248 -3.794,-37.942 -11.383,-50.084c-7.588,-12.141 -21.057,-18.212 -40.408,-18.212Zm482.052,121.225c-23.903,-0 -41.831,5.691 -53.782,17.074c-11.952,11.382 -17.928,26.18 -17.928,44.392c0,17.453 5.976,32.061 17.928,43.823c11.951,11.762 27.982,17.643 48.091,17.643c17.074,-0 32.346,-4.174 45.815,-12.521c13.469,-8.347 24.947,-19.54 34.432,-33.579l0,-76.832l-74.556,-0Zm618.074,2.845c0,-23.144 -3.699,-44.107 -11.098,-62.888c-7.398,-18.782 -18.307,-33.674 -32.725,-44.677c-14.417,-11.003 -31.681,-16.505 -51.79,-16.505c-19.73,0 -37.088,5.407 -52.076,16.221c-14.987,10.813 -26.464,25.421 -34.432,43.822c-7.968,18.402 -11.952,38.417 -11.952,60.044c0,23.144 3.7,44.107 11.098,62.888c7.399,18.782 18.307,33.674 32.725,44.677c14.418,11.003 31.682,16.505 51.791,16.505c19.73,-0 37.088,-5.407 52.075,-16.221c14.987,-10.813 26.465,-25.421 34.433,-43.822c7.968,-18.402 11.951,-38.417 11.951,-60.044Zm-793.365,83.093l-0,-175.861c-23.145,-20.868 -47.617,-31.302 -73.418,-31.302c-19.73,0 -36.519,5.407 -50.368,16.221c-13.849,10.813 -24.377,25.326 -31.586,43.538c-7.209,18.212 -10.814,38.321 -10.814,60.328c0,36.044 7.588,65.734 22.765,89.068c15.177,23.335 37.563,35.002 67.157,35.002c16.695,-0 30.733,-3.131 42.116,-9.391c11.383,-6.26 22.765,-15.461 34.148,-27.603Zm504.817,0l0,-175.861c-23.145,-20.868 -47.617,-31.302 -73.418,-31.302c-19.729,0 -36.519,5.407 -50.367,16.221c-13.849,10.813 -24.378,25.326 -31.587,43.538c-7.209,18.212 -10.814,38.321 -10.814,60.328c0,36.044 7.589,65.734 22.766,89.068c15.176,23.335 37.562,35.002 67.157,35.002c16.694,-0 30.733,-3.131 42.115,-9.391c11.383,-6.26 22.765,-15.461 34.148,-27.603Z"
                        style="fill:#fff;fill-rule:nonzero;" />
                    <g>
                        <path
                            d="M4.449,65.293c-3.984,-3.984 -3.984,-10.443 0,-14.427c11.707,-11.707 34.71,-34.71 46.417,-46.417c3.984,-3.984 10.443,-3.984 14.427,0c11.707,11.707 34.71,34.71 46.417,46.417c3.984,3.984 3.984,10.443 0,14.427c-11.707,11.707 -34.71,34.71 -46.417,46.417c-3.984,3.984 -10.443,3.984 -14.427,0c-11.707,-11.707 -34.71,-34.71 -46.417,-46.417Z"
                            style="fill:#fff;fill-opacity:0.8;" />
                        <clipPath id="_clip1">
                            <path
                                d="M4.449,65.293c-3.984,-3.984 -3.984,-10.443 0,-14.427c11.707,-11.707 34.71,-34.71 46.417,-46.417c3.984,-3.984 10.443,-3.984 14.427,0c11.707,11.707 34.71,34.71 46.417,46.417c3.984,3.984 3.984,10.443 0,14.427c-11.707,11.707 -34.71,34.71 -46.417,46.417c-3.984,3.984 -10.443,3.984 -14.427,0c-11.707,-11.707 -34.71,-34.71 -46.417,-46.417Z" />
                        </clipPath>
                        <g clip-path="url(#_clip1)">
                            <path
                                d="M66.465,70.427c-1.913,1.913 -4.508,2.988 -7.213,2.988c-2.706,-0 -5.301,-1.075 -7.214,-2.988c-26.129,-26.129 -115.653,-115.654 -141.782,-141.783c-1.913,-1.913 -2.988,-4.508 -2.988,-7.213c-0,-2.706 1.075,-5.301 2.988,-7.214c22.173,-22.173 89.167,-89.167 111.34,-111.34c1.913,-1.913 4.508,-2.988 7.214,-2.988c2.706,-0 5.3,1.075 7.214,2.988c26.128,26.129 115.653,115.653 141.782,141.782c1.913,1.913 2.988,4.508 2.988,7.214c-0,2.705 -1.075,5.3 -2.988,7.213c-22.174,22.174 -89.167,89.167 -111.341,111.341Z"
                                style="fill:#fff;" />
                            <path d="M58.659,97.793l0,0l125.768,-125.768l-0,0l-125.768,125.768Z"
                                style="fill:url(#_Linear2);" />
                        </g>
                    </g>
                </g>
            </g>
        </g>
    </g>
    <defs>
        <linearGradient id="_Linear2" x1="0" y1="0" x2="1" y2="0" gradientUnits="userSpaceOnUse"
            gradientTransform="matrix(2.63285e-06,2.63285e-06,125.768,-125.768,121.543,34.9092)">
            <stop offset="0" style="stop-color:#ff00fd;stop-opacity:1" />
            <stop offset="1" style="stop-color:#7c54e5;stop-opacity:1" />
        </linearGradient>
    </defs>
</svg>