<?xml version="1.0" encoding="UTF-8" standalone="no"?>
<!DOCTYPE svg PUBLIC "-//W3C//DTD SVG 1.1//EN" "http://www.w3.org/Graphics/SVG/1.1/DTD/svg11.dtd">
<svg width="100%" height="100%" viewBox="0 0 2048 2048" version="1.1" xmlns="http://www.w3.org/2000/svg" xmlns:xlink="http://www.w3.org/1999/xlink" xml:space="preserve" xmlns:serif="http://www.serif.com/" style="fill-rule:evenodd;clip-rule:evenodd;stroke-linejoin:round;stroke-miterlimit:2;">
    <g id="Слой2">
    </g>
    <g transform="matrix(1.84108,0,0,1.96192,45.3752,-2320.09)">
        <path d="M512.4,1446.86C514.862,1444.4 518.299,1443 521.897,1443L581.249,1443C586.422,1443 591.105,1445.87 593.18,1450.32C595.255,1454.77 594.328,1459.95 590.819,1463.51C542.638,1512.49 421.306,1635.81 372.745,1685.17C361.16,1696.94 361.239,1715.12 372.926,1726.81C421.584,1775.46 542.588,1896.47 590.753,1944.63C594.287,1948.17 595.262,1953.33 593.24,1957.79C591.217,1962.24 586.578,1965.16 581.415,1965.22C559.278,1965.47 530.844,1965.8 518.858,1965.93C515.205,1965.98 511.701,1964.58 509.201,1962.08C492.83,1945.7 428.57,1881.45 380.305,1833.18C371.164,1824.04 357.001,1821.07 344.58,1825.68C332.159,1830.29 324,1841.55 324,1854.09L324,1935.44C324,1943.55 320.569,1951.32 314.463,1957.05C308.357,1962.78 300.075,1966 291.439,1966C282.792,1966 273.945,1966 267.024,1966C259.831,1966 254,1960.53 254,1953.78L254,1455.22C254,1448.47 259.831,1443 267.024,1443L291.439,1443C309.422,1443 324,1456.68 324,1473.56L324,1604.37C324,1609.39 327.264,1613.89 332.232,1615.74C337.2,1617.58 342.866,1616.39 346.522,1612.74C391.856,1567.4 491.574,1467.68 512.4,1446.86Z" style="fill:rgba(255,255,255,.2);"/>
        <g transform="matrix(0.715785,0.715785,-0.708381,0.708381,1252.17,-147.186)">
            <path d="M1024,1613.89C1024,1595.4 1009.75,1581 991.448,1581C935.006,1581 819.341,1581 759.965,1581C750.383,1581 740.975,1585.01 733.974,1592.09C726.972,1599.16 723,1608.67 723,1618.35L723,1849.11C723,1867.6 737.249,1882 755.552,1882C811.994,1882 927.659,1882 987.035,1882C996.617,1882 1006.02,1877.99 1013.03,1870.91C1020.03,1863.84 1024,1854.33 1024,1844.65L1024,1613.89Z" style="fill:url(#_Linear1);"/>
        </g>
    </g>
    <defs>
        <linearGradient id="_Linear1" x1="0" y1="0" x2="1" y2="0" gradientUnits="userSpaceOnUse" gradientTransform="matrix(-264.576,-293.452,307.833,-286.548,1012.25,1871.7)"><stop offset="0" style="stop-color:rgb(0,69,255);stop-opacity:1"/><stop offset="1" style="stop-color:rgb(0,200,255);stop-opacity:1"/></linearGradient>
    </defs>
</svg>
