<svg opacity=".2" width="124" height="103" viewBox="0 0 124 103" fill="none" xmlns="http://www.w3.org/2000/svg">
<path d="M82.25 27C82.25 41.0435 70.739 52.5 56.5 52.5C42.261 52.5 30.75 41.0435 30.75 27C30.75 12.9239 42.2597 1.5 56.5 1.5C70.7403 1.5 82.25 12.9239 82.25 27Z" stroke="white" stroke-width="3" stroke-linejoin="round"/>
<path d="M85 65.2786C74.9871 62.0937 64.1351 60.5 56.5 60.5C48.8649 60.5 38.0129 62.0937 28 65.2786M106.5 77.1405C109.319 80.1783 111 83.6316 111 87.5V87.5C111 90.7554 111 92.3832 110.625 93.7144C109.68 97.0631 107.063 99.6801 103.714 100.625C102.383 101 100.755 101 97.5 101H56.5H15.5C12.2446 101 10.6168 101 9.2856 100.625C5.93694 99.6801 3.31987 97.0631 2.37545 93.7144C2 92.3832 2 90.7554 2 87.5V87.5C2 82.047 5.33967 77.419 10.5 73.6169" stroke="white" stroke-width="3" stroke-linecap="round" stroke-linejoin="round"/>
<path d="M94.5 64.0891V47.0459C94.5 43.1623 94.5189 41.5805 94.9255 40.3442C95.7689 37.7801 97.7801 35.7689 100.344 34.9255C101.58 34.5189 103.162 34.5 107.046 34.5H117.75C120.373 34.5 122.5 36.6266 122.5 39.25C122.5 41.8734 120.373 44 117.75 44H113.5H113.46C113.034 44 112.775 44 112.549 44.0089C106.552 44.2445 101.744 49.0518 101.509 55.0485C101.5 55.2745 101.5 55.5338 101.5 55.9596V56V82.9444C101.5 86.0457 99.5638 89.04 96.5139 91.3315C93.4765 93.6136 89.5784 95 86.1667 95C79.4327 95 74 89.5939 74 82.9444C74 76.2949 79.4327 70.8889 86.1667 70.8889C88.0638 70.8889 90.0765 70.2708 91.6464 69.1606C93.223 68.0456 94.5 66.3122 94.5 64.0891Z" stroke="white" stroke-width="3" stroke-linecap="round" stroke-linejoin="round"/>
</svg>
